<svg width="700" height="700" class="radar.radarChart"><g transform="translate(350,350)"><defs><filter id="glow"><feGaussianBlur stdDeviation="2.5" result="coloredBlur"></feGaussianBlur><feMerge><feMergeNode in="coloredBlur"></feMergeNode><feMergeNode in="SourceGraphic"></feMergeNode></feMerge></filter></defs><g class="axisWrapper"><circle class="gridCircle" r="250" style="fill: rgb(205, 205, 205); stroke: rgb(205, 205, 205); fill-opacity: 0.1; filter: url(&quot;#glow&quot;);"></circle><circle class="gridCircle" r="200" style="fill: rgb(205, 205, 205); stroke: rgb(205, 205, 205); fill-opacity: 0.1; filter: url(&quot;#glow&quot;);"></circle><circle class="gridCircle" r="150" style="fill: rgb(205, 205, 205); stroke: rgb(205, 205, 205); fill-opacity: 0.1; filter: url(&quot;#glow&quot;);"></circle><circle class="gridCircle" r="100" style="fill: rgb(205, 205, 205); stroke: rgb(205, 205, 205); fill-opacity: 0.1; filter: url(&quot;#glow&quot;);"></circle><circle class="gridCircle" r="50" style="fill: rgb(205, 205, 205); stroke: rgb(205, 205, 205); fill-opacity: 0.1; filter: url(&quot;#glow&quot;);"></circle><text class="axisLabel" x="4" y="-250" dy="0.4em" fill="#737373" style="font-size: 10px;">500%</text><text class="axisLabel" x="4" y="-200" dy="0.4em" fill="#737373" style="font-size: 10px;">400%</text><text class="axisLabel" x="4" y="-150" dy="0.4em" fill="#737373" style="font-size: 10px;">300%</text><text class="axisLabel" x="4" y="-100" dy="0.4em" fill="#737373" style="font-size: 10px;">200%</text><text class="axisLabel" x="4" y="-50" dy="0.4em" fill="#737373" style="font-size: 10px;">100%</text><g class="axis"><line x1="0" y1="0" x2="1.6838893488276108e-14" y2="-275" class="line" style="stroke: white; stroke-width: 2px;"></line><text class="legend" text-anchor="middle" dy="0.35em" x="1.9135106236677395e-14" y="-312.5" style="font-size: 11px;"><tspan x="1.9135106236677395e-14" y="-312.5" dy="0.35em">efficassité</tspan></text></g><g class="axis"><line x1="0" y1="0" x2="161.6409443804301" y2="-222.47967345311054" class="line" style="stroke: white; stroke-width: 2px;"></line><text class="legend" text-anchor="middle" dy="0.35em" x="183.68289134139786" y="-252.81781074217108" style="font-size: 11px;"><tspan x="183.68289134139786" y="-252.81781074217108" dy="0.35em">Sourcing</tspan><tspan x="183.68289134139786" y="-252.81781074217108" dy="1.75em">matériaux</tspan><tspan x="183.68289134139786" y="-252.81781074217108" dy="3.15em">localement</tspan></text></g><g class="axis"><line x1="0" y1="0" x2="261.5405419811672" y2="-84.97967345311054" class="line" style="stroke: white; stroke-width: 2px;"></line><text class="legend" text-anchor="middle" dy="0.35em" x="297.2051613422355" y="-96.56781074217106" style="font-size: 11px;"><tspan x="297.2051613422355" y="-96.56781074217106" dy="0.35em">Sourcing</tspan><tspan x="297.2051613422355" y="-96.56781074217106" dy="1.75em">matériaux</tspan><tspan x="297.2051613422355" y="-96.56781074217106" dy="3.15em">en</tspan><tspan x="297.2051613422355" y="-96.56781074217106" dy="4.549999999999999em">récup'/réemploi</tspan></text></g><g class="axis"><line x1="0" y1="0" x2="261.5405419811672" y2="84.97967345311054" class="line" style="stroke: white; stroke-width: 2px;"></line><text class="legend" text-anchor="middle" dy="0.35em" x="297.2051613422355" y="96.56781074217106" style="font-size: 11px;"><tspan x="297.2051613422355" y="96.56781074217106" dy="0.35em">Facilité de</tspan><tspan x="297.2051613422355" y="96.56781074217106" dy="1.75em">fabrication</tspan></text></g><g class="axis"><line x1="0" y1="0" x2="161.6409443804301" y2="222.47967345311054" class="line" style="stroke: white; stroke-width: 2px;"></line><text class="legend" text-anchor="middle" dy="0.35em" x="183.68289134139786" y="252.81781074217108" style="font-size: 11px;"><tspan x="183.68289134139786" y="252.81781074217108" dy="0.35em">Facilité</tspan><tspan x="183.68289134139786" y="252.81781074217108" dy="1.75em">d'usage</tspan></text></g><g class="axis"><line x1="0" y1="0" x2="1.6838893488276108e-14" y2="275" class="line" style="stroke: white; stroke-width: 2px;"></line><text class="legend" text-anchor="middle" dy="0.35em" x="1.9135106236677395e-14" y="312.5" style="font-size: 11px;"><tspan x="1.9135106236677395e-14" y="312.5" dy="0.35em">Adaptation</tspan><tspan x="1.9135106236677395e-14" y="312.5" dy="1.75em">au mode</tspan><tspan x="1.9135106236677395e-14" y="312.5" dy="3.15em">de vie</tspan><tspan x="1.9135106236677395e-14" y="312.5" dy="4.549999999999999em">urbain</tspan></text></g><g class="axis"><line x1="0" y1="0" x2="-161.64094438043008" y2="222.47967345311054" class="line" style="stroke: white; stroke-width: 2px;"></line><text class="legend" text-anchor="middle" dy="0.35em" x="-183.68289134139783" y="252.81781074217108" style="font-size: 11px;"><tspan x="-183.68289134139783" y="252.81781074217108" dy="0.35em">Adaptation</tspan><tspan x="-183.68289134139783" y="252.81781074217108" dy="1.75em">au mode</tspan><tspan x="-183.68289134139783" y="252.81781074217108" dy="3.15em">de vie rural</tspan></text></g><g class="axis"><line x1="0" y1="0" x2="-261.5405419811672" y2="84.97967345311056" class="line" style="stroke: white; stroke-width: 2px;"></line><text class="legend" text-anchor="middle" dy="0.35em" x="-297.2051613422355" y="96.56781074217109" style="font-size: 11px;"><tspan x="-297.2051613422355" y="96.56781074217109" dy="0.35em">Simplicité</tspan><tspan x="-297.2051613422355" y="96.56781074217109" dy="1.75em">du système</tspan></text></g><g class="axis"><line x1="0" y1="0" x2="-261.5405419811673" y2="-84.97967345311051" class="line" style="stroke: white; stroke-width: 2px;"></line><text class="legend" text-anchor="middle" dy="0.35em" x="-297.2051613422355" y="-96.56781074217102" style="font-size: 11px;"><tspan x="-297.2051613422355" y="-96.56781074217102" dy="0.35em">Esthétique</tspan></text></g><g class="axis"><line x1="0" y1="0" x2="-161.64094438043014" y2="-222.4796734531105" class="line" style="stroke: white; stroke-width: 2px;"></line><text class="legend" text-anchor="middle" dy="0.35em" x="-183.6828913413979" y="-252.81781074217105" style="font-size: 11px;"><tspan x="-183.6828913413979" y="-252.81781074217105" dy="0.35em">Coût</tspan></text></g></g><g class="radarWrapper"><path class="radarArea" d="M1.2246467991473532e-14,-200L88.16778784387097,-121.35254915624212L47.552825814757675,-15.450849718747369L142.65847744427302,46.35254915624211L146.9463130731183,202.25424859373686L9.184850993605149e-15,150L-117.5570504584946,161.80339887498948L-142.65847744427302,46.35254915624213L-237.7641290737884,-77.25424859373682L-88.16778784387098,-121.3525491562421Z" style="fill: rgb(237, 201, 81); fill-opacity: 0.35;"></path><path class="radarStroke" d="M1.2246467991473532e-14,-200L88.16778784387097,-121.35254915624212L47.552825814757675,-15.450849718747369L142.65847744427302,46.35254915624211L146.9463130731183,202.25424859373686L9.184850993605149e-15,150L-117.5570504584946,161.80339887498948L-142.65847744427302,46.35254915624213L-237.7641290737884,-77.25424859373682L-88.16778784387098,-121.3525491562421Z" style="stroke-width: 2px; stroke: rgb(237, 201, 81); fill: none; filter: url(&quot;#glow&quot;);"></path><circle class="radarCircle" r="4" cx="1.2246467991473532e-14" cy="-200" style="fill: rgb(237, 201, 81); fill-opacity: 0.8;"></circle><circle class="radarCircle" r="4" cx="88.16778784387097" cy="-121.35254915624212" style="fill: rgb(237, 201, 81); fill-opacity: 0.8;"></circle><circle class="radarCircle" r="4" cx="47.552825814757675" cy="-15.450849718747369" style="fill: rgb(237, 201, 81); fill-opacity: 0.8;"></circle><circle class="radarCircle" r="4" cx="142.65847744427302" cy="46.35254915624211" style="fill: rgb(237, 201, 81); fill-opacity: 0.8;"></circle><circle class="radarCircle" r="4" cx="146.9463130731183" cy="202.25424859373686" style="fill: rgb(237, 201, 81); fill-opacity: 0.8;"></circle><circle class="radarCircle" r="4" cx="9.184850993605149e-15" cy="150" style="fill: rgb(237, 201, 81); fill-opacity: 0.8;"></circle><circle class="radarCircle" r="4" cx="-117.5570504584946" cy="161.80339887498948" style="fill: rgb(237, 201, 81); fill-opacity: 0.8;"></circle><circle class="radarCircle" r="4" cx="-142.65847744427302" cy="46.35254915624213" style="fill: rgb(237, 201, 81); fill-opacity: 0.8;"></circle><circle class="radarCircle" r="4" cx="-237.7641290737884" cy="-77.25424859373682" style="fill: rgb(237, 201, 81); fill-opacity: 0.8;"></circle><circle class="radarCircle" r="4" cx="-88.16778784387098" cy="-121.3525491562421" style="fill: rgb(237, 201, 81); fill-opacity: 0.8;"></circle></g><g class="radarWrapper"><path class="radarArea" d="M0,0L117.55705045849463,-161.80339887498948L237.76412907378838,-77.25424859373685L190.2113032590307,61.803398874989476L146.9463130731183,202.25424859373686L3.061616997868383e-15,50L-117.5570504584946,161.80339887498948L-237.76412907378838,77.25424859373688L-47.55282581475768,-15.450849718747364L-29.38926261462366,-40.450849718747364Z" style="fill: rgb(204, 51, 63); fill-opacity: 0.35;"></path><path class="radarStroke" d="M0,0L117.55705045849463,-161.80339887498948L237.76412907378838,-77.25424859373685L190.2113032590307,61.803398874989476L146.9463130731183,202.25424859373686L3.061616997868383e-15,50L-117.5570504584946,161.80339887498948L-237.76412907378838,77.25424859373688L-47.55282581475768,-15.450849718747364L-29.38926261462366,-40.450849718747364Z" style="stroke-width: 2px; stroke: rgb(204, 51, 63); fill: none; filter: url(&quot;#glow&quot;);"></path><circle class="radarCircle" r="4" cx="0" cy="0" style="fill: rgb(204, 51, 63); fill-opacity: 0.8;"></circle><circle class="radarCircle" r="4" cx="117.55705045849463" cy="-161.80339887498948" style="fill: rgb(204, 51, 63); fill-opacity: 0.8;"></circle><circle class="radarCircle" r="4" cx="237.76412907378838" cy="-77.25424859373685" style="fill: rgb(204, 51, 63); fill-opacity: 0.8;"></circle><circle class="radarCircle" r="4" cx="190.2113032590307" cy="61.803398874989476" style="fill: rgb(204, 51, 63); fill-opacity: 0.8;"></circle><circle class="radarCircle" r="4" cx="146.9463130731183" cy="202.25424859373686" style="fill: rgb(204, 51, 63); fill-opacity: 0.8;"></circle><circle class="radarCircle" r="4" cx="3.061616997868383e-15" cy="50" style="fill: rgb(204, 51, 63); fill-opacity: 0.8;"></circle><circle class="radarCircle" r="4" cx="-117.5570504584946" cy="161.80339887498948" style="fill: rgb(204, 51, 63); fill-opacity: 0.8;"></circle><circle class="radarCircle" r="4" cx="-237.76412907378838" cy="77.25424859373688" style="fill: rgb(204, 51, 63); fill-opacity: 0.8;"></circle><circle class="radarCircle" r="4" cx="-47.55282581475768" cy="-15.450849718747364" style="fill: rgb(204, 51, 63); fill-opacity: 0.8;"></circle><circle class="radarCircle" r="4" cx="-29.38926261462366" cy="-40.450849718747364" style="fill: rgb(204, 51, 63); fill-opacity: 0.8;"></circle></g><g class="radarWrapper"><path class="radarArea" d="M0,0L117.55705045849463,-161.80339887498948L190.2113032590307,-61.803398874989476L142.65847744427302,46.35254915624211L146.9463130731183,202.25424859373686L1.2246467991473532e-14,200L-117.5570504584946,161.80339887498948L-190.2113032590307,61.803398874989504L-47.55282581475768,-15.450849718747364L-58.77852522924732,-80.90169943749473Z" style="fill: rgb(0, 160, 176); fill-opacity: 0.35;"></path><path class="radarStroke" d="M0,0L117.55705045849463,-161.80339887498948L190.2113032590307,-61.803398874989476L142.65847744427302,46.35254915624211L146.9463130731183,202.25424859373686L1.2246467991473532e-14,200L-117.5570504584946,161.80339887498948L-190.2113032590307,61.803398874989504L-47.55282581475768,-15.450849718747364L-58.77852522924732,-80.90169943749473Z" style="stroke-width: 2px; stroke: rgb(0, 160, 176); fill: none; filter: url(&quot;#glow&quot;);"></path><circle class="radarCircle" r="4" cx="0" cy="0" style="fill: rgb(0, 160, 176); fill-opacity: 0.8;"></circle><circle class="radarCircle" r="4" cx="117.55705045849463" cy="-161.80339887498948" style="fill: rgb(0, 160, 176); fill-opacity: 0.8;"></circle><circle class="radarCircle" r="4" cx="190.2113032590307" cy="-61.803398874989476" style="fill: rgb(0, 160, 176); fill-opacity: 0.8;"></circle><circle class="radarCircle" r="4" cx="142.65847744427302" cy="46.35254915624211" style="fill: rgb(0, 160, 176); fill-opacity: 0.8;"></circle><circle class="radarCircle" r="4" cx="146.9463130731183" cy="202.25424859373686" style="fill: rgb(0, 160, 176); fill-opacity: 0.8;"></circle><circle class="radarCircle" r="4" cx="1.2246467991473532e-14" cy="200" style="fill: rgb(0, 160, 176); fill-opacity: 0.8;"></circle><circle class="radarCircle" r="4" cx="-117.5570504584946" cy="161.80339887498948" style="fill: rgb(0, 160, 176); fill-opacity: 0.8;"></circle><circle class="radarCircle" r="4" cx="-190.2113032590307" cy="61.803398874989504" style="fill: rgb(0, 160, 176); fill-opacity: 0.8;"></circle><circle class="radarCircle" r="4" cx="-47.55282581475768" cy="-15.450849718747364" style="fill: rgb(0, 160, 176); fill-opacity: 0.8;"></circle><circle class="radarCircle" r="4" cx="-58.77852522924732" cy="-80.90169943749473" style="fill: rgb(0, 160, 176); fill-opacity: 0.8;"></circle></g><g class="radarWrapper"><path class="radarArea" d="M1.2246467991473532e-14,-200L117.55705045849463,-161.80339887498948L190.2113032590307,-61.803398874989476L190.2113032590307,61.803398874989476L146.9463130731183,202.25424859373686L9.184850993605149e-15,150L-117.5570504584946,161.80339887498948L-237.76412907378838,77.25424859373688L-95.10565162951536,-30.901699437494727L-29.38926261462366,-40.450849718747364Z" style="fill: rgb(255, 0, 0); fill-opacity: 0.35;"></path><path class="radarStroke" d="M1.2246467991473532e-14,-200L117.55705045849463,-161.80339887498948L190.2113032590307,-61.803398874989476L190.2113032590307,61.803398874989476L146.9463130731183,202.25424859373686L9.184850993605149e-15,150L-117.5570504584946,161.80339887498948L-237.76412907378838,77.25424859373688L-95.10565162951536,-30.901699437494727L-29.38926261462366,-40.450849718747364Z" style="stroke-width: 2px; stroke: rgb(255, 0, 0); fill: none; filter: url(&quot;#glow&quot;);"></path><circle class="radarCircle" r="4" cx="1.2246467991473532e-14" cy="-200" style="fill: rgb(255, 0, 0); fill-opacity: 0.8;"></circle><circle class="radarCircle" r="4" cx="117.55705045849463" cy="-161.80339887498948" style="fill: rgb(255, 0, 0); fill-opacity: 0.8;"></circle><circle class="radarCircle" r="4" cx="190.2113032590307" cy="-61.803398874989476" style="fill: rgb(255, 0, 0); fill-opacity: 0.8;"></circle><circle class="radarCircle" r="4" cx="190.2113032590307" cy="61.803398874989476" style="fill: rgb(255, 0, 0); fill-opacity: 0.8;"></circle><circle class="radarCircle" r="4" cx="146.9463130731183" cy="202.25424859373686" style="fill: rgb(255, 0, 0); fill-opacity: 0.8;"></circle><circle class="radarCircle" r="4" cx="9.184850993605149e-15" cy="150" style="fill: rgb(255, 0, 0); fill-opacity: 0.8;"></circle><circle class="radarCircle" r="4" cx="-117.5570504584946" cy="161.80339887498948" style="fill: rgb(255, 0, 0); fill-opacity: 0.8;"></circle><circle class="radarCircle" r="4" cx="-237.76412907378838" cy="77.25424859373688" style="fill: rgb(255, 0, 0); fill-opacity: 0.8;"></circle><circle class="radarCircle" r="4" cx="-95.10565162951536" cy="-30.901699437494727" style="fill: rgb(255, 0, 0); fill-opacity: 0.8;"></circle><circle class="radarCircle" r="4" cx="-29.38926261462366" cy="-40.450849718747364" style="fill: rgb(255, 0, 0); fill-opacity: 0.8;"></circle></g><g class="radarWrapper"><path class="radarArea" d="M1.2246467991473532e-14,-200L0,0L0,0L95.10565162951535,30.901699437494738L146.9463130731183,202.25424859373686L3.061616997868383e-15,50L-117.5570504584946,161.80339887498948L-237.76412907378838,77.25424859373688L-237.7641290737884,-77.25424859373682L-146.94631307311832,-202.25424859373683Z" style="fill: rgb(0, 255, 0); fill-opacity: 0.35;"></path><path class="radarStroke" d="M1.2246467991473532e-14,-200L0,0L0,0L95.10565162951535,30.901699437494738L146.9463130731183,202.25424859373686L3.061616997868383e-15,50L-117.5570504584946,161.80339887498948L-237.76412907378838,77.25424859373688L-237.7641290737884,-77.25424859373682L-146.94631307311832,-202.25424859373683Z" style="stroke-width: 2px; stroke: rgb(0, 255, 0); fill: none; filter: url(&quot;#glow&quot;);"></path><circle class="radarCircle" r="4" cx="1.2246467991473532e-14" cy="-200" style="fill: rgb(0, 255, 0); fill-opacity: 0.8;"></circle><circle class="radarCircle" r="4" cx="0" cy="0" style="fill: rgb(0, 255, 0); fill-opacity: 0.8;"></circle><circle class="radarCircle" r="4" cx="0" cy="0" style="fill: rgb(0, 255, 0); fill-opacity: 0.8;"></circle><circle class="radarCircle" r="4" cx="95.10565162951535" cy="30.901699437494738" style="fill: rgb(0, 255, 0); fill-opacity: 0.8;"></circle><circle class="radarCircle" r="4" cx="146.9463130731183" cy="202.25424859373686" style="fill: rgb(0, 255, 0); fill-opacity: 0.8;"></circle><circle class="radarCircle" r="4" cx="3.061616997868383e-15" cy="50" style="fill: rgb(0, 255, 0); fill-opacity: 0.8;"></circle><circle class="radarCircle" r="4" cx="-117.5570504584946" cy="161.80339887498948" style="fill: rgb(0, 255, 0); fill-opacity: 0.8;"></circle><circle class="radarCircle" r="4" cx="-237.76412907378838" cy="77.25424859373688" style="fill: rgb(0, 255, 0); fill-opacity: 0.8;"></circle><circle class="radarCircle" r="4" cx="-237.7641290737884" cy="-77.25424859373682" style="fill: rgb(0, 255, 0); fill-opacity: 0.8;"></circle><circle class="radarCircle" r="4" cx="-146.94631307311832" cy="-202.25424859373683" style="fill: rgb(0, 255, 0); fill-opacity: 0.8;"></circle></g><g class="radarWrapper"><path class="radarArea" d="M9.184850993605149e-15,-150L88.16778784387097,-121.35254915624212L142.65847744427302,-46.35254915624211L142.65847744427302,46.35254915624211L146.9463130731183,202.25424859373686L3.061616997868383e-15,50L-88.16778784387095,121.35254915624212L-190.2113032590307,61.803398874989504L-142.65847744427305,-46.35254915624209L-88.16778784387098,-121.3525491562421Z" style="fill: rgb(0, 0, 255); fill-opacity: 0.35;"></path><path class="radarStroke" d="M9.184850993605149e-15,-150L88.16778784387097,-121.35254915624212L142.65847744427302,-46.35254915624211L142.65847744427302,46.35254915624211L146.9463130731183,202.25424859373686L3.061616997868383e-15,50L-88.16778784387095,121.35254915624212L-190.2113032590307,61.803398874989504L-142.65847744427305,-46.35254915624209L-88.16778784387098,-121.3525491562421Z" style="stroke-width: 2px; stroke: rgb(0, 0, 255); fill: none; filter: url(&quot;#glow&quot;);"></path><circle class="radarCircle" r="4" cx="9.184850993605149e-15" cy="-150" style="fill: rgb(0, 0, 255); fill-opacity: 0.8;"></circle><circle class="radarCircle" r="4" cx="88.16778784387097" cy="-121.35254915624212" style="fill: rgb(0, 0, 255); fill-opacity: 0.8;"></circle><circle class="radarCircle" r="4" cx="142.65847744427302" cy="-46.35254915624211" style="fill: rgb(0, 0, 255); fill-opacity: 0.8;"></circle><circle class="radarCircle" r="4" cx="142.65847744427302" cy="46.35254915624211" style="fill: rgb(0, 0, 255); fill-opacity: 0.8;"></circle><circle class="radarCircle" r="4" cx="146.9463130731183" cy="202.25424859373686" style="fill: rgb(0, 0, 255); fill-opacity: 0.8;"></circle><circle class="radarCircle" r="4" cx="3.061616997868383e-15" cy="50" style="fill: rgb(0, 0, 255); fill-opacity: 0.8;"></circle><circle class="radarCircle" r="4" cx="-88.16778784387095" cy="121.35254915624212" style="fill: rgb(0, 0, 255); fill-opacity: 0.8;"></circle><circle class="radarCircle" r="4" cx="-190.2113032590307" cy="61.803398874989504" style="fill: rgb(0, 0, 255); fill-opacity: 0.8;"></circle><circle class="radarCircle" r="4" cx="-142.65847744427305" cy="-46.35254915624209" style="fill: rgb(0, 0, 255); fill-opacity: 0.8;"></circle><circle class="radarCircle" r="4" cx="-88.16778784387098" cy="-121.3525491562421" style="fill: rgb(0, 0, 255); fill-opacity: 0.8;"></circle></g><g class="radarCircleWrapper"><circle class="radarInvisibleCircle" r="6" cx="1.2246467991473532e-14" cy="-200" style="fill: none; pointer-events: all;"></circle><circle class="radarInvisibleCircle" r="6" cx="88.16778784387097" cy="-121.35254915624212" style="fill: none; pointer-events: all;"></circle><circle class="radarInvisibleCircle" r="6" cx="47.552825814757675" cy="-15.450849718747369" style="fill: none; pointer-events: all;"></circle><circle class="radarInvisibleCircle" r="6" cx="142.65847744427302" cy="46.35254915624211" style="fill: none; pointer-events: all;"></circle><circle class="radarInvisibleCircle" r="6" cx="146.9463130731183" cy="202.25424859373686" style="fill: none; pointer-events: all;"></circle><circle class="radarInvisibleCircle" r="6" cx="9.184850993605149e-15" cy="150" style="fill: none; pointer-events: all;"></circle><circle class="radarInvisibleCircle" r="6" cx="-117.5570504584946" cy="161.80339887498948" style="fill: none; pointer-events: all;"></circle><circle class="radarInvisibleCircle" r="6" cx="-142.65847744427302" cy="46.35254915624213" style="fill: none; pointer-events: all;"></circle><circle class="radarInvisibleCircle" r="6" cx="-237.7641290737884" cy="-77.25424859373682" style="fill: none; pointer-events: all;"></circle><circle class="radarInvisibleCircle" r="6" cx="-88.16778784387098" cy="-121.3525491562421" style="fill: none; pointer-events: all;"></circle></g><g class="radarCircleWrapper"><circle class="radarInvisibleCircle" r="6" cx="0" cy="0" style="fill: none; pointer-events: all;"></circle><circle class="radarInvisibleCircle" r="6" cx="117.55705045849463" cy="-161.80339887498948" style="fill: none; pointer-events: all;"></circle><circle class="radarInvisibleCircle" r="6" cx="237.76412907378838" cy="-77.25424859373685" style="fill: none; pointer-events: all;"></circle><circle class="radarInvisibleCircle" r="6" cx="190.2113032590307" cy="61.803398874989476" style="fill: none; pointer-events: all;"></circle><circle class="radarInvisibleCircle" r="6" cx="146.9463130731183" cy="202.25424859373686" style="fill: none; pointer-events: all;"></circle><circle class="radarInvisibleCircle" r="6" cx="3.061616997868383e-15" cy="50" style="fill: none; pointer-events: all;"></circle><circle class="radarInvisibleCircle" r="6" cx="-117.5570504584946" cy="161.80339887498948" style="fill: none; pointer-events: all;"></circle><circle class="radarInvisibleCircle" r="6" cx="-237.76412907378838" cy="77.25424859373688" style="fill: none; pointer-events: all;"></circle><circle class="radarInvisibleCircle" r="6" cx="-47.55282581475768" cy="-15.450849718747364" style="fill: none; pointer-events: all;"></circle><circle class="radarInvisibleCircle" r="6" cx="-29.38926261462366" cy="-40.450849718747364" style="fill: none; pointer-events: all;"></circle></g><g class="radarCircleWrapper"><circle class="radarInvisibleCircle" r="6" cx="0" cy="0" style="fill: none; pointer-events: all;"></circle><circle class="radarInvisibleCircle" r="6" cx="117.55705045849463" cy="-161.80339887498948" style="fill: none; pointer-events: all;"></circle><circle class="radarInvisibleCircle" r="6" cx="190.2113032590307" cy="-61.803398874989476" style="fill: none; pointer-events: all;"></circle><circle class="radarInvisibleCircle" r="6" cx="142.65847744427302" cy="46.35254915624211" style="fill: none; pointer-events: all;"></circle><circle class="radarInvisibleCircle" r="6" cx="146.9463130731183" cy="202.25424859373686" style="fill: none; pointer-events: all;"></circle><circle class="radarInvisibleCircle" r="6" cx="1.2246467991473532e-14" cy="200" style="fill: none; pointer-events: all;"></circle><circle class="radarInvisibleCircle" r="6" cx="-117.5570504584946" cy="161.80339887498948" style="fill: none; pointer-events: all;"></circle><circle class="radarInvisibleCircle" r="6" cx="-190.2113032590307" cy="61.803398874989504" style="fill: none; pointer-events: all;"></circle><circle class="radarInvisibleCircle" r="6" cx="-47.55282581475768" cy="-15.450849718747364" style="fill: none; pointer-events: all;"></circle><circle class="radarInvisibleCircle" r="6" cx="-58.77852522924732" cy="-80.90169943749473" style="fill: none; pointer-events: all;"></circle></g><g class="radarCircleWrapper"><circle class="radarInvisibleCircle" r="6" cx="1.2246467991473532e-14" cy="-200" style="fill: none; pointer-events: all;"></circle><circle class="radarInvisibleCircle" r="6" cx="117.55705045849463" cy="-161.80339887498948" style="fill: none; pointer-events: all;"></circle><circle class="radarInvisibleCircle" r="6" cx="190.2113032590307" cy="-61.803398874989476" style="fill: none; pointer-events: all;"></circle><circle class="radarInvisibleCircle" r="6" cx="190.2113032590307" cy="61.803398874989476" style="fill: none; pointer-events: all;"></circle><circle class="radarInvisibleCircle" r="6" cx="146.9463130731183" cy="202.25424859373686" style="fill: none; pointer-events: all;"></circle><circle class="radarInvisibleCircle" r="6" cx="9.184850993605149e-15" cy="150" style="fill: none; pointer-events: all;"></circle><circle class="radarInvisibleCircle" r="6" cx="-117.5570504584946" cy="161.80339887498948" style="fill: none; pointer-events: all;"></circle><circle class="radarInvisibleCircle" r="6" cx="-237.76412907378838" cy="77.25424859373688" style="fill: none; pointer-events: all;"></circle><circle class="radarInvisibleCircle" r="6" cx="-95.10565162951536" cy="-30.901699437494727" style="fill: none; pointer-events: all;"></circle><circle class="radarInvisibleCircle" r="6" cx="-29.38926261462366" cy="-40.450849718747364" style="fill: none; pointer-events: all;"></circle></g><g class="radarCircleWrapper"><circle class="radarInvisibleCircle" r="6" cx="1.2246467991473532e-14" cy="-200" style="fill: none; pointer-events: all;"></circle><circle class="radarInvisibleCircle" r="6" cx="0" cy="0" style="fill: none; pointer-events: all;"></circle><circle class="radarInvisibleCircle" r="6" cx="0" cy="0" style="fill: none; pointer-events: all;"></circle><circle class="radarInvisibleCircle" r="6" cx="95.10565162951535" cy="30.901699437494738" style="fill: none; pointer-events: all;"></circle><circle class="radarInvisibleCircle" r="6" cx="146.9463130731183" cy="202.25424859373686" style="fill: none; pointer-events: all;"></circle><circle class="radarInvisibleCircle" r="6" cx="3.061616997868383e-15" cy="50" style="fill: none; pointer-events: all;"></circle><circle class="radarInvisibleCircle" r="6" cx="-117.5570504584946" cy="161.80339887498948" style="fill: none; pointer-events: all;"></circle><circle class="radarInvisibleCircle" r="6" cx="-237.76412907378838" cy="77.25424859373688" style="fill: none; pointer-events: all;"></circle><circle class="radarInvisibleCircle" r="6" cx="-237.7641290737884" cy="-77.25424859373682" style="fill: none; pointer-events: all;"></circle><circle class="radarInvisibleCircle" r="6" cx="-146.94631307311832" cy="-202.25424859373683" style="fill: none; pointer-events: all;"></circle></g><g class="radarCircleWrapper"><circle class="radarInvisibleCircle" r="6" cx="9.184850993605149e-15" cy="-150" style="fill: none; pointer-events: all;"></circle><circle class="radarInvisibleCircle" r="6" cx="88.16778784387097" cy="-121.35254915624212" style="fill: none; pointer-events: all;"></circle><circle class="radarInvisibleCircle" r="6" cx="142.65847744427302" cy="-46.35254915624211" style="fill: none; pointer-events: all;"></circle><circle class="radarInvisibleCircle" r="6" cx="142.65847744427302" cy="46.35254915624211" style="fill: none; pointer-events: all;"></circle><circle class="radarInvisibleCircle" r="6" cx="146.9463130731183" cy="202.25424859373686" style="fill: none; pointer-events: all;"></circle><circle class="radarInvisibleCircle" r="6" cx="3.061616997868383e-15" cy="50" style="fill: none; pointer-events: all;"></circle><circle class="radarInvisibleCircle" r="6" cx="-88.16778784387095" cy="121.35254915624212" style="fill: none; pointer-events: all;"></circle><circle class="radarInvisibleCircle" r="6" cx="-190.2113032590307" cy="61.803398874989504" style="fill: none; pointer-events: all;"></circle><circle class="radarInvisibleCircle" r="6" cx="-142.65847744427305" cy="-46.35254915624209" style="fill: none; pointer-events: all;"></circle><circle class="radarInvisibleCircle" r="6" cx="-88.16778784387098" cy="-121.3525491562421" style="fill: none; pointer-events: all;"></circle></g><text class="tooltip" x="-57.55282581475768" y="-25.450849718747364" style="opacity: 0;">100%</text></g></svg>